<svg width="34" height="45" viewBox="0 0 34 45" fill="none" xmlns="http://www.w3.org/2000/svg">
<path d="M28.4096 39.8602C31.054 36.9955 35.1527 29.6794 30.3929 23.3329C25.6331 16.9865 13.7159 6.98648 8.9075 2.17809C6.59368 -0.135717 1.96606 2.50864 4.27987 6.14463C7.08578 10.5539 16.1795 18.3748 17.5017 19.697C16.1795 18.3748 14.8573 17.3832 13.2046 16.3915C10.8908 15.0693 7.25477 17.7137 9.23804 21.6802L12.5435 24.3246L8.9075 22.0108C6.92423 21.0191 3.68489 23.0685 5.27151 27.2995L7.91587 29.6133L4.94096 27.63C3.28824 27.4097 -0.0172096 28.0267 1.30497 32.2577C3.94933 35.6953 9.45841 40.5213 11.8824 42.5046C14.6369 44.1573 21.7987 45.6778 28.4096 39.8602Z" stroke="black" stroke-width="2"/>
</svg>
